<svg xmlns="http://www.w3.org/2000/svg" viewBox="0 0 512 512" xml:space="preserve">
  <path style="fill:#eff2fa" d="M467.863 0H96.059C81.433 0 69.576 11.857 69.576 26.483v167.724L21.56 242.223c-8.342 8.342-2.434 22.604 9.363 22.604h436.94c14.626 0 26.483-11.857 26.483-26.483V26.483C494.345 11.857 482.489 0 467.863 0"/>
  <path style="fill:#c7cfe2" d="M150.07 52.966h-35.31a8.829 8.829 0 0 1 0-17.656h35.31a8.83 8.83 0 0 1 8.828 8.828 8.83 8.83 0 0 1-8.828 8.828m194.206 0H185.38a8.829 8.829 0 0 1 0-17.656h158.897a8.83 8.83 0 0 1 8.828 8.828 8.83 8.83 0 0 1-8.829 8.828m105.931 0h-70.621a8.829 8.829 0 0 1 0-17.656h70.621a8.828 8.828 0 0 1 0 17.656m0 70.62H335.449a8.829 8.829 0 0 1 0-17.656h114.759a8.829 8.829 0 0 1-.001 17.656m-150.068 0h-185.38a8.829 8.829 0 0 1 0-17.656h185.379a8.83 8.83 0 0 1 8.828 8.828 8.827 8.827 0 0 1-8.827 8.828m150.068 105.931H317.794a8.829 8.829 0 0 1 0-17.656h132.414a8.829 8.829 0 0 1-.001 17.656m-167.724 0H114.759a8.829 8.829 0 0 1 0-17.656h167.724a8.828 8.828 0 0 1 0 17.656M238.345 88.276H114.759a8.829 8.829 0 0 1 0-17.656h123.586a8.829 8.829 0 0 1 0 17.656m211.862 70.621H203.035a8.829 8.829 0 0 1 0-17.656h247.172a8.828 8.828 0 0 1 0 17.656m-282.482 0h-52.966a8.829 8.829 0 0 1 0-17.656h52.966a8.83 8.83 0 0 1 8.828 8.828 8.83 8.83 0 0 1-8.828 8.828m282.482-70.621H273.656a8.829 8.829 0 0 1 0-17.656h176.552a8.83 8.83 0 0 1 8.828 8.828 8.83 8.83 0 0 1-8.829 8.828M238.345 194.207H114.759a8.829 8.829 0 0 1 0-17.656h123.586a8.829 8.829 0 0 1 0 17.656m211.862 0H273.656a8.829 8.829 0 0 1 0-17.656h176.552a8.83 8.83 0 0 1 8.828 8.828 8.83 8.83 0 0 1-8.829 8.828"/>
  <path style="fill:#f0c087" d="M467.825 325.196c-.749-14.321-13.603-25.058-27.944-25.058H335.087c29.196-20.561 50.358-50.325 55.74-82.315 2.244-13.338-4.834-27.087-17.729-31.169-16.036-5.075-32.031 5.48-34.347 21.394-3.838 26.337-33.707 59.058-75.277 65.974-6.426 1.069-12.579 4.226-16.3 9.574-17.655 25.37-52.966 43.026-52.966 43.026v176.552h33.236c13.129 0 26.237 1.085 39.188 3.243l14.05 2.342a238.4 238.4 0 0 0 39.187 3.243h93.53c14.34 0 27.194-10.738 27.944-25.059.8-15.272-11.347-27.906-26.445-27.906h7.329c14.34 0 27.194-10.738 27.944-25.059.8-15.272-11.347-27.906-26.445-27.906h7.329c14.34 0 27.194-10.738 27.944-25.059.8-15.272-11.347-27.906-26.445-27.906h8.828c15.096-.004 27.243-12.638 26.443-27.911"/>
  <path style="fill:#18bdf6" d="M184.105 512h-68.072c-5.579 0-10.102-4.523-10.102-10.102V327.895c0-5.579 4.523-10.102 10.102-10.102h68.072c5.579 0 10.102 4.523 10.102 10.102v174.003c0 5.579-4.523 10.102-10.102 10.102"/>
  <circle style="fill:#eff2fa" cx="150.07" cy="467.862" r="17.655"/>
  <path style="fill:#e6af78" d="M211.863 316.099c-9.966 6.654-17.655 10.521-17.655 10.521v176.552h17.655z"/>
</svg>